<svg width="1440" height="124" viewBox="0 0 1440 124" fill="none" xmlns="http://www.w3.org/2000/svg">
<g clip-path="url(#clip0_156_33)">
<path d="M1872 0H928V123H1872V0Z" fill="#FAEAD1"/>
<path d="M961.944 59.0979H932.115L938.8 54.5002H968.218L961.944 59.0979Z" fill="white"/>
<path d="M1014.71 59.0462H984.882L990.796 54.5002H1020.21L1014.71 59.0462Z" fill="white"/>
<path d="M1067.43 59.0462H1037.6L1042.79 54.4485H1072.16L1067.43 59.0462Z" fill="white"/>
<path d="M1120.14 59.0462H1090.31L1094.74 54.4485H1124.1L1120.14 59.0462Z" fill="white"/>
<path d="M1172.86 58.9945L1143.03 59.0462L1146.68 54.4485H1176.05L1172.86 58.9945Z" fill="white"/>
<path d="M1225.57 58.9945H1195.75L1198.63 54.4485H1227.99L1225.57 58.9945Z" fill="white"/>
<path d="M1278.24 58.9946H1248.46L1250.57 54.3969H1279.94L1278.24 58.9946Z" fill="white"/>
<path d="M1330.95 58.9946H1301.13L1302.51 54.3969H1331.88L1330.95 58.9946Z" fill="white"/>
<path d="M1383.62 58.9429H1353.84L1354.41 54.3969H1383.77L1383.62 58.9429Z" fill="white"/>
<path d="M1436.28 58.9429H1406.45L1406.3 54.3969H1435.67L1436.28 58.9429Z" fill="white"/>
</g>
<g clip-path="url(#clip1_156_33)">
<path d="M929 0H-15V123H929V0Z" fill="#FAEAD1"/>
<path d="M18.944 59.0979H-10.8855L-4.19958 54.5002H25.2184L18.944 59.0979Z" fill="white"/>
<path d="M71.7113 59.0462H41.8818L47.7963 54.5002H77.2143L71.7113 59.0462Z" fill="white"/>
<path d="M124.427 59.0462H94.5977L99.7921 54.4485H129.159L124.427 59.0462Z" fill="white"/>
<path d="M177.143 59.0462H147.313L151.736 54.4485H181.103L177.143 59.0462Z" fill="white"/>
<path d="M229.859 58.9945L200.029 59.0462L203.681 54.4485H233.047L229.859 58.9945Z" fill="white"/>
<path d="M282.575 58.9945H252.745L255.625 54.4485H284.992L282.575 58.9945Z" fill="white"/>
<path d="M335.239 58.9946H305.461L307.57 54.3969H336.936L335.239 58.9946Z" fill="white"/>
<path d="M387.955 58.9946H358.125L359.514 54.3969H388.881L387.955 58.9946Z" fill="white"/>
<path d="M440.62 58.9429H410.842L411.407 54.3969H440.774L440.62 58.9429Z" fill="white"/>
<path d="M493.284 58.9429H463.455L463.3 54.3969H492.667L493.284 58.9429Z" fill="white"/>
<path d="M545.897 58.9429H516.119L515.193 54.3452H544.56L545.897 58.9429Z" fill="white"/>
<path d="M598.561 58.8912L568.783 58.9429L567.086 54.3452H596.453L598.561 58.8912Z" fill="white"/>
<path d="M651.175 58.8912H621.448L618.979 54.3452H648.346L651.175 58.8912Z" fill="white"/>
<path d="M703.839 58.8912H674.061L670.872 54.3452L700.187 54.2936L703.839 58.8912Z" fill="white"/>
<path d="M756.452 58.8912H726.674L722.714 54.2936H752.029L756.452 58.8912Z" fill="white"/>
<path d="M809.065 58.8396L779.287 58.8912L774.555 54.2936H803.87L809.065 58.8396Z" fill="white"/>
<path d="M861.627 58.8396H831.9L826.397 54.2936H855.712L861.627 58.8396Z" fill="white"/>
<path d="M914.24 58.8396H884.462L878.239 54.2936L907.554 54.2419L914.24 58.8396Z" fill="white"/>
</g>
<g clip-path="url(#clip2_156_33)">
<path d="M908 118H392V123.115H908V118Z" fill="white"/>
<path d="M417.245 118H392V123.115H417.245V118Z" fill="#FFC6A4"/>
<path d="M461.859 118H436.614V123.115H461.859V118Z" fill="#FFC6A4"/>
<path d="M506.473 118H481.229V123.115H506.473V118Z" fill="#FFC6A4"/>
<path d="M551.087 118H525.842V123.115H551.087V118Z" fill="#FFC6A4"/>
<path d="M595.702 118H570.457V123.115H595.702V118Z" fill="#FFC6A4"/>
<path d="M640.314 118H615.069V123.115H640.314V118Z" fill="#FFC6A4"/>
<path d="M684.93 118H659.685V123.115H684.93V118Z" fill="#FFC6A4"/>
<path d="M729.545 118H704.3V123.115H729.545V118Z" fill="#FFC6A4"/>
<path d="M774.159 118H748.914V123.115H774.159V118Z" fill="#FFC6A4"/>
<path d="M818.772 118H793.527V123.115H818.772V118Z" fill="#FFC6A4"/>
<path d="M863.383 118H838.138V123.115H863.383V118Z" fill="#FFC6A4"/>
<path d="M908.002 118H882.758V123.115H908.002V118Z" fill="#FFC6A4"/>
<path d="M730 118H214V123.115H730V118Z" fill="white"/>
<path d="M417.702 118H392.457V123.115H417.702V118Z" fill="#FFC6A4"/>
<path d="M462.314 118H437.069V123.115H462.314V118Z" fill="#FFC6A4"/>
<path d="M506.93 118H481.685V123.115H506.93V118Z" fill="#FFC6A4"/>
<path d="M551.545 118H526.3V123.115H551.545V118Z" fill="#FFC6A4"/>
<path d="M596.159 118H570.914V123.115H596.159V118Z" fill="#FFC6A4"/>
<path d="M640.772 118H615.527V123.115H640.772V118Z" fill="#FFC6A4"/>
<path d="M685.383 118H660.138V123.115H685.383V118Z" fill="#FFC6A4"/>
<path d="M730.002 118H704.758V123.115H730.002V118Z" fill="#FFC6A4"/>
</g>
<g clip-path="url(#clip3_156_33)">
<path d="M418 118H-98V123.115H418V118Z" fill="white"/>
<path d="M16.4735 118H-8.77148V123.115H16.4735V118Z" fill="#FFC6A4"/>
<path d="M61.0872 118H35.8423V123.115H61.0872V118Z" fill="#FFC6A4"/>
<path d="M105.702 118H80.457V123.115H105.702V118Z" fill="#FFC6A4"/>
<path d="M150.314 118H125.069V123.115H150.314V118Z" fill="#FFC6A4"/>
<path d="M194.93 118H169.685V123.115H194.93V118Z" fill="#FFC6A4"/>
<path d="M239.545 118H214.3V123.115H239.545V118Z" fill="#FFC6A4"/>
<path d="M284.159 118H258.914V123.115H284.159V118Z" fill="#FFC6A4"/>
<path d="M328.772 118H303.527V123.115H328.772V118Z" fill="#FFC6A4"/>
<path d="M373.383 118H348.138V123.115H373.383V118Z" fill="#FFC6A4"/>
<path d="M418.002 118H392.758V123.115H418.002V118Z" fill="#FFC6A4"/>
<path d="M240 118H-276V123.115H240V118Z" fill="white"/>
<path d="M16.9297 118H-8.31519V123.115H16.9297V118Z" fill="#FFC6A4"/>
<path d="M61.5452 118H36.3003V123.115H61.5452V118Z" fill="#FFC6A4"/>
<path d="M106.159 118H80.9141V123.115H106.159V118Z" fill="#FFC6A4"/>
<path d="M150.772 118H125.527V123.115H150.772V118Z" fill="#FFC6A4"/>
<path d="M195.383 118H170.138V123.115H195.383V118Z" fill="#FFC6A4"/>
<path d="M240.002 118H214.758V123.115H240.002V118Z" fill="#FFC6A4"/>
</g>
<g clip-path="url(#clip4_156_33)">
<path d="M1443 118H927V123.115H1443V118Z" fill="white"/>
<path d="M952.245 118H927V123.115H952.245V118Z" fill="#FFC6A4"/>
<path d="M996.859 118H971.614V123.115H996.859V118Z" fill="#FFC6A4"/>
<path d="M1041.47 118H1016.23V123.115H1041.47V118Z" fill="#FFC6A4"/>
<path d="M1086.09 118H1060.84V123.115H1086.09V118Z" fill="#FFC6A4"/>
<path d="M1130.7 118H1105.46V123.115H1130.7V118Z" fill="#FFC6A4"/>
<path d="M1175.31 118H1150.07V123.115H1175.31V118Z" fill="#FFC6A4"/>
<path d="M1219.93 118H1194.68V123.115H1219.93V118Z" fill="#FFC6A4"/>
<path d="M1264.55 118H1239.3V123.115H1264.55V118Z" fill="#FFC6A4"/>
<path d="M1309.16 118H1283.91V123.115H1309.16V118Z" fill="#FFC6A4"/>
<path d="M1353.77 118H1328.53V123.115H1353.77V118Z" fill="#FFC6A4"/>
<path d="M1398.38 118H1373.14V123.115H1398.38V118Z" fill="#FFC6A4"/>
<path d="M1443 118H1417.76V123.115H1443V118Z" fill="#FFC6A4"/>
</g>
<defs>
<clipPath id="clip0_156_33">
<rect width="944" height="123" fill="white" transform="translate(928)"/>
</clipPath>
<clipPath id="clip1_156_33">
<rect width="944" height="123" fill="white" transform="translate(-15)"/>
</clipPath>
<clipPath id="clip2_156_33">
<rect width="516" height="5.11521" fill="white" transform="translate(392 118)"/>
</clipPath>
<clipPath id="clip3_156_33">
<rect width="516" height="5.11521" fill="white" transform="translate(-98 118)"/>
</clipPath>
<clipPath id="clip4_156_33">
<rect width="516" height="5.11521" fill="white" transform="translate(927 118)"/>
</clipPath>
</defs>
</svg>
